<?xml version="1.0" encoding="UTF-8"?>
<svg xmlns="http://www.w3.org/2000/svg" xmlns:xlink="http://www.w3.org/1999/xlink" width="100pt" height="75pt" viewBox="0 0 100 75" version="1.1">
<g id="surface1">
<path style=" stroke:none;fill-rule:nonzero;fill:rgb(2.352941%,1.568627%,12.156863%);fill-opacity:1;" d="M 41.71875 40.742188 L 41.71875 34.277344 L 43.320312 34.277344 L 43.320312 35.332031 C 43.5625 34.953125 43.925781 34.640625 44.335938 34.453125 C 44.824219 34.21875 45.359375 34.109375 45.90625 34.109375 C 47.226562 34.109375 48.015625 34.570312 48.289062 35.488281 C 48.398438 35.828125 48.445312 36.300781 48.445312 36.90625 L 48.445312 40.734375 L 46.824219 40.734375 L 46.824219 37.304688 C 46.824219 36.789062 46.765625 36.414062 46.640625 36.210938 C 46.445312 35.820312 46.007812 35.625 45.339844 35.625 C 44.949219 35.625 44.558594 35.722656 44.199219 35.898438 C 43.859375 36.046875 43.5625 36.289062 43.359375 36.601562 L 43.359375 40.742188 Z M 41.71875 40.742188 "/>
<path style=" stroke:none;fill-rule:nonzero;fill:rgb(2.352941%,1.568627%,12.156863%);fill-opacity:1;" d="M 55.59375 40.945312 C 54.785156 40.945312 54.296875 40.671875 54.109375 40.117188 C 53.613281 40.710938 52.832031 41.015625 51.757812 41.015625 C 50.9375 41.015625 50.292969 40.828125 49.84375 40.460938 C 49.402344 40.109375 49.148438 39.570312 49.167969 39.003906 C 49.167969 38.058594 49.65625 37.441406 50.625 37.160156 C 51.238281 36.984375 52.011719 36.894531 52.929688 36.894531 C 53.25 36.894531 53.5625 36.925781 53.875 36.972656 L 53.875 36.769531 C 53.886719 36.496094 53.789062 36.21875 53.613281 36.015625 C 53.378906 35.773438 52.9375 35.65625 52.285156 35.65625 C 51.257812 35.65625 50.417969 35.910156 49.753906 36.425781 L 49.707031 36.425781 L 49.707031 34.960938 C 50.496094 34.453125 51.472656 34.1875 52.636719 34.1875 C 53.574219 34.1875 54.277344 34.367188 54.746094 34.726562 C 55 34.921875 55.195312 35.175781 55.3125 35.476562 C 55.429688 35.78125 55.488281 36.179688 55.488281 36.699219 C 55.488281 36.855469 55.488281 37.140625 55.476562 37.539062 C 55.476562 37.941406 55.46875 38.222656 55.46875 38.390625 C 55.46875 38.867188 55.488281 39.148438 55.535156 39.25 C 55.605469 39.433594 55.78125 39.523438 56.054688 39.523438 C 56.230469 39.523438 56.40625 39.503906 56.570312 39.445312 L 56.570312 40.773438 C 56.347656 40.890625 56.015625 40.945312 55.59375 40.945312 Z M 53.886719 38.164062 C 53.574219 38.117188 53.261719 38.09375 52.949219 38.09375 C 52.488281 38.085938 52.039062 38.125 51.601562 38.222656 C 51.09375 38.339844 50.828125 38.585938 50.828125 38.976562 C 50.828125 39.492188 51.25 39.757812 52.101562 39.757812 C 52.902344 39.757812 53.496094 39.523438 53.898438 39.042969 C 53.886719 38.875 53.886719 38.585938 53.886719 38.164062 Z M 53.886719 38.164062 "/>
<path style=" stroke:none;fill-rule:nonzero;fill:rgb(2.352941%,1.568627%,12.156863%);fill-opacity:1;" d="M 57.589844 41.269531 L 57.636719 41.269531 C 58.390625 41.828125 59.355469 42.101562 60.527344 42.101562 C 61.4375 42.101562 62.089844 41.894531 62.472656 41.484375 C 62.734375 41.210938 62.863281 40.761719 62.863281 40.125 L 62.863281 39.648438 C 62.675781 39.953125 62.363281 40.207031 61.914062 40.421875 C 61.425781 40.632812 60.910156 40.742188 60.371094 40.734375 C 59.335938 40.734375 58.496094 40.46875 57.832031 39.941406 C 57.167969 39.414062 56.835938 38.640625 56.835938 37.625 C 56.828125 37.078125 56.933594 36.53125 57.167969 36.035156 C 57.363281 35.605469 57.664062 35.234375 58.054688 34.953125 C 58.40625 34.695312 58.808594 34.5 59.21875 34.375 C 59.628906 34.25 60.046875 34.1875 60.476562 34.1875 C 60.996094 34.179688 61.503906 34.277344 61.992188 34.460938 C 62.441406 34.648438 62.742188 34.875 62.890625 35.15625 L 62.890625 34.375 L 64.453125 34.375 L 64.453125 40.050781 C 64.453125 40.96875 64.289062 41.679688 63.945312 42.1875 C 63.339844 43.078125 62.195312 43.527344 60.539062 43.527344 C 59.953125 43.535156 59.367188 43.46875 58.796875 43.332031 C 58.28125 43.203125 57.882812 43.039062 57.597656 42.851562 Z M 62.8125 36.582031 C 62.648438 36.257812 62.363281 35.996094 62.023438 35.851562 C 61.632812 35.671875 61.203125 35.585938 60.761719 35.585938 C 60.1875 35.566406 59.628906 35.742188 59.160156 36.085938 C 58.722656 36.414062 58.496094 36.914062 58.496094 37.578125 C 58.496094 38.15625 58.710938 38.585938 59.152344 38.878906 C 59.621094 39.179688 60.175781 39.335938 60.734375 39.328125 C 61.164062 39.328125 61.59375 39.238281 61.984375 39.0625 C 62.324219 38.925781 62.609375 38.683594 62.804688 38.359375 Z M 62.8125 36.582031 "/>
<path style=" stroke:none;fill-rule:nonzero;fill:rgb(2.352941%,1.568627%,12.156863%);fill-opacity:1;" d="M 71.601562 40.945312 C 70.792969 40.945312 70.304688 40.671875 70.117188 40.117188 C 69.628906 40.710938 68.847656 41.015625 67.773438 41.015625 C 66.953125 41.015625 66.308594 40.828125 65.859375 40.460938 C 65.421875 40.109375 65.164062 39.570312 65.1875 39.003906 C 65.1875 38.058594 65.671875 37.441406 66.640625 37.160156 C 67.257812 36.984375 68.027344 36.894531 68.945312 36.894531 C 69.265625 36.894531 69.578125 36.925781 69.890625 36.972656 L 69.890625 36.769531 C 69.902344 36.496094 69.816406 36.21875 69.628906 36.015625 C 69.394531 35.773438 68.953125 35.65625 68.300781 35.65625 C 67.273438 35.65625 66.4375 35.910156 65.78125 36.425781 L 65.722656 36.425781 L 65.722656 34.960938 C 66.515625 34.453125 67.492188 34.191406 68.652344 34.191406 C 69.589844 34.191406 70.292969 34.367188 70.761719 34.726562 C 71.015625 34.921875 71.210938 35.175781 71.328125 35.480469 C 71.445312 35.78125 71.503906 36.183594 71.503906 36.699219 C 71.503906 36.855469 71.503906 37.140625 71.492188 37.539062 C 71.484375 37.941406 71.484375 38.222656 71.484375 38.390625 C 71.484375 38.867188 71.503906 39.152344 71.554688 39.25 C 71.621094 39.433594 71.796875 39.523438 72.070312 39.523438 C 72.246094 39.523438 72.421875 39.503906 72.585938 39.445312 L 72.585938 40.773438 C 72.351562 40.890625 72.023438 40.945312 71.601562 40.945312 Z M 69.890625 38.164062 C 69.578125 38.117188 69.265625 38.09375 68.953125 38.09375 C 68.496094 38.085938 68.046875 38.125 67.609375 38.222656 C 67.101562 38.339844 66.835938 38.585938 66.835938 38.976562 C 66.835938 39.492188 67.257812 39.757812 68.105469 39.757812 C 68.90625 39.757812 69.5 39.523438 69.902344 39.042969 C 69.890625 38.875 69.890625 38.585938 69.890625 38.164062 Z M 69.890625 38.164062 "/>
<path style=" stroke:none;fill-rule:nonzero;fill:rgb(2.352941%,1.568627%,12.156863%);fill-opacity:1;" d="M 73.3125 40.839844 L 73.3125 34.375 L 74.914062 34.375 L 74.914062 35.46875 C 75.03125 35.148438 75.28125 34.851562 75.65625 34.601562 C 76.054688 34.328125 76.53125 34.1875 77.023438 34.210938 C 77.402344 34.210938 77.695312 34.265625 77.910156 34.394531 L 77.910156 36.015625 L 77.859375 36.015625 C 77.546875 35.878906 77.21875 35.8125 76.875 35.820312 C 76.445312 35.8125 76.023438 35.890625 75.632812 36.074219 C 75.332031 36.210938 75.085938 36.464844 74.960938 36.769531 L 74.960938 40.839844 Z M 73.3125 40.839844 "/>
<path style=" stroke:none;fill-rule:nonzero;fill:rgb(2.352941%,1.568627%,12.156863%);fill-opacity:1;" d="M 78.664062 40.839844 L 78.664062 34.375 L 80.265625 34.375 L 80.265625 35.46875 C 80.390625 35.148438 80.632812 34.851562 81.007812 34.601562 C 81.40625 34.328125 81.882812 34.1875 82.375 34.210938 C 82.753906 34.210938 83.046875 34.265625 83.261719 34.394531 L 83.261719 36.015625 L 83.203125 36.015625 C 82.890625 35.878906 82.558594 35.8125 82.21875 35.820312 C 81.789062 35.8125 81.367188 35.890625 80.976562 36.074219 C 80.671875 36.210938 80.429688 36.464844 80.304688 36.769531 L 80.304688 40.839844 Z M 78.664062 40.839844 "/>
<path style=" stroke:none;fill-rule:nonzero;fill:rgb(2.352941%,1.568627%,12.156863%);fill-opacity:1;" d="M 89.851562 40.046875 C 89.148438 40.695312 88.242188 41.015625 87.117188 41.015625 C 85.996094 41.015625 85.085938 40.703125 84.394531 40.070312 C 83.703125 39.433594 83.359375 38.613281 83.359375 37.609375 C 83.359375 36.601562 83.710938 35.78125 84.421875 35.15625 C 85.125 34.523438 86.046875 34.199219 87.15625 34.199219 C 88.3125 34.199219 89.21875 34.511719 89.890625 35.136719 C 90.566406 35.761719 90.90625 36.582031 90.898438 37.609375 C 90.90625 38.59375 90.554688 39.40625 89.851562 40.046875 Z M 88.691406 36.179688 C 88.300781 35.8125 87.804688 35.625 87.148438 35.625 C 86.496094 35.625 85.996094 35.8125 85.585938 36.179688 C 85.1875 36.542969 84.960938 37.0625 84.980469 37.597656 C 84.960938 38.144531 85.1875 38.664062 85.59375 39.023438 C 86.007812 39.382812 86.515625 39.5625 87.140625 39.5625 C 87.78125 39.5625 88.28125 39.375 88.679688 39.003906 C 89.070312 38.644531 89.289062 38.125 89.265625 37.597656 C 89.289062 37.070312 89.082031 36.554688 88.691406 36.179688 Z M 88.691406 36.179688 "/>
<path style=" stroke:none;fill-rule:nonzero;fill:rgb(27.843137%,84.313725%,67.45098%);fill-opacity:1;" d="M 27.882812 47.726562 C 25.273438 47.726562 21.953125 46.035156 19.0625 43.195312 C 18.933594 43.554688 18.78125 43.90625 18.613281 44.25 C 17.617188 46.28125 16.179688 47.390625 14.582031 47.390625 C 12.980469 47.390625 11.523438 46.296875 10.507812 44.316406 C 9.578125 42.507812 9.070312 40.078125 9.070312 37.480469 C 9.070312 33.25 10.46875 29.675781 12.726562 28.164062 C 14.289062 27.109375 16.25 26.980469 18.40625 27.78125 C 20.234375 28.457031 22.207031 29.8125 24.140625 31.726562 C 24.316406 31.269531 24.523438 30.820312 24.765625 30.390625 C 25.78125 28.59375 27.195312 27.609375 28.75 27.609375 C 31.84375 27.609375 34.179688 31.855469 34.179688 37.492188 C 34.179688 39.929688 33.730469 42.179688 32.890625 43.984375 C 32.519531 44.804688 32.023438 45.546875 31.414062 46.203125 C 30.878906 46.789062 30.203125 47.226562 29.453125 47.488281 C 28.9375 47.65625 28.417969 47.734375 27.882812 47.726562 Z M 19.472656 41.894531 C 23.105469 45.703125 27.011719 47.03125 29.070312 46.347656 C 30.125 45.996094 31.09375 44.980469 31.796875 43.476562 C 32.566406 41.835938 32.96875 39.765625 32.96875 37.5 C 32.96875 35.097656 32.507812 32.871094 31.667969 31.230469 C 30.878906 29.679688 29.84375 28.828125 28.75 28.828125 C 27.175781 28.828125 25.808594 30.402344 25.078125 32.726562 C 28.007812 35.945312 29.929688 39.902344 29.765625 42.429688 C 29.707031 43.339844 29.375 44.0625 28.808594 44.523438 L 28.757812 44.558594 C 28.132812 44.980469 27.402344 45 26.6875 44.617188 C 24.824219 43.625 23.308594 40 23.308594 36.542969 C 23.308594 35.371094 23.445312 34.199219 23.71875 33.054688 C 19.753906 28.9375 15.917969 27.492188 13.386719 29.1875 C 11.492188 30.46875 10.273438 33.730469 10.273438 37.507812 C 10.273438 42.390625 12.15625 46.210938 14.570312 46.210938 C 16.074219 46.210938 17.371094 44.648438 18.113281 42.234375 C 16.171875 40.078125 14.714844 37.664062 13.992188 35.429688 C 13.28125 33.242188 13.367188 31.472656 14.207031 30.585938 C 14.753906 30.007812 15.566406 29.871094 16.425781 30.214844 C 18.203125 30.925781 20 33.621094 20 37.382812 C 20.019531 38.898438 19.84375 40.421875 19.472656 41.894531 Z M 24.734375 34.148438 C 24.601562 34.929688 24.53125 35.734375 24.53125 36.53125 C 24.53125 39.804688 25.976562 42.851562 27.265625 43.546875 C 27.65625 43.75 27.902344 43.671875 28.066406 43.5625 C 28.359375 43.320312 28.515625 42.910156 28.554688 42.34375 C 28.699219 40.292969 27.117188 36.984375 24.734375 34.148438 Z M 15.539062 31.21875 C 15.371094 31.210938 15.203125 31.28125 15.097656 31.40625 C 14.707031 31.804688 14.492188 33.007812 15.15625 35.039062 C 15.761719 36.90625 16.933594 38.925781 18.496094 40.789062 C 18.710938 39.667969 18.820312 38.515625 18.808594 37.371094 C 18.808594 33.789062 17.078125 31.765625 15.996094 31.328125 C 15.851562 31.261719 15.691406 31.230469 15.539062 31.21875 Z M 15.539062 31.21875 "/>
</g>
</svg>
